<svg width="20" height="20" viewBox="0 0 20 20" fill="none" xmlns="http://www.w3.org/2000/svg">
<g clip-path="url(#clip0_1_170)">
<path fill-rule="evenodd" clip-rule="evenodd" d="M18.3638 18.3334H14.9039V12.9198C14.9039 11.6287 14.882 9.968 13.1062 9.968C11.3062 9.968 11.0314 11.375 11.0314 12.8272V18.3334H7.57514V7.20068H10.8921V8.72285H10.9395C11.401 7.84731 12.5295 6.92438 14.2128 6.92438C17.7164 6.92438 18.3638 9.22952 18.3638 12.2279V18.3334ZM3.6742 5.67996C2.56246 5.67996 1.6665 4.78109 1.6665 3.67299C1.6665 2.56562 2.56246 1.66675 3.6742 1.66675C4.78084 1.66675 5.67971 2.56562 5.67971 3.67299C5.67971 4.78109 4.78084 5.67996 3.6742 5.67996ZM5.40488 18.3334H1.94134V7.20068H5.40488V18.3334Z" fill="black"/>
</g>
<defs>
<clipPath id="clip0_1_170">
<rect width="20" height="20" fill="white"/>
</clipPath>
</defs>
</svg>
