<svg width="20" height="20" viewBox="0 0 20 20" fill="none" xmlns="http://www.w3.org/2000/svg">
<path fill-rule="evenodd" clip-rule="evenodd" d="M20 3.59043C19.2642 3.91709 18.4733 4.13709 17.6433 4.23626C18.49 3.72876 19.1408 2.92459 19.4475 1.96626C18.655 2.43709 17.7767 2.77793 16.8417 2.96293C16.0933 2.16459 15.0267 1.66626 13.8467 1.66626C11.5808 1.66626 9.74333 3.50376 9.74333 5.76959C9.74333 6.09126 9.78 6.40459 9.85 6.70459C6.44 6.53376 3.41583 4.90043 1.3925 2.41709C1.03917 3.02376 0.836667 3.72793 0.836667 4.48043C0.836667 5.90376 1.56083 7.16043 2.6625 7.89626C1.99 7.87376 1.35667 7.68959 0.803333 7.38293V7.43376C0.803333 9.42209 2.2175 11.0804 4.095 11.4571C3.75083 11.5521 3.3875 11.6013 3.01417 11.6013C2.74917 11.6013 2.4925 11.5754 2.24167 11.5279C2.76417 13.1579 4.27917 14.3446 6.075 14.3779C4.67 15.4779 2.90083 16.1338 0.979167 16.1338C0.6475 16.1338 0.320833 16.1146 0 16.0771C1.81583 17.2404 3.9725 17.9204 6.29 17.9204C13.8375 17.9204 17.9642 11.6679 17.9642 6.24543C17.9642 6.06793 17.96 5.89126 17.9525 5.71543C18.7542 5.13626 19.45 4.41376 20 3.59043Z" fill="black"/>
</svg>
